# xmcd
#
# Track frame offsets:
#	150
#	17453
#	34093
#	51785
#	72062
#	87574
#	102854
#	114907
#	133550
#	149988
#	167298
#	183563
#	200400
#	219489
#	235059
#	249289
#	265160
#	282445
#
# Disc length: 3985 seconds
#
# Revision: 1
# Processed by: cddbd v1.5.2PL0 Copyright (c) Steve Scherf et al.
# Submitted via: EasyCDDAExtractor 15.2.5.1
#
DISCID=fd0f8f12
DTITLE=Blake Shelton - The Best Of Blake Shelton
DYEAR=2011
DGENRE=Country
TTITLE0=Austin
TTITLE1=Ol' Red
TTITLE2=The Baby
TTITLE3=Playboys Of The Southwestern World
TTITLE4=Some Beach
TTITLE5=Goodbye Time
TTITLE6=Nobody But Me
TTITLE7=Don't Make Me
TTITLE8=The More I Drink
TTITLE9=Home
TTITLE10=She Shouldn't Be Gone
TTITLE11=Hillbilly Bone
TTITLE12=Kiss My Country Ass
TTITLE13=All About Tonight
TTITLE14=Who Are You When I'm Not Looking
TTITLE15=Honey Bee
TTITLE16=God Gave Me You
TTITLE17=Footloose
EXTD=
EXTT0=
EXTT1=
EXTT2=
EXTT3=
EXTT4=
EXTT5=
EXTT6=
EXTT7=
EXTT8=
EXTT9=
EXTT10=
EXTT11=
EXTT12=
EXTT13=
EXTT14=
EXTT15=
EXTT16=
EXTT17=
PLAYORDER=
